<svg xmlns="http://www.w3.org/2000/svg" xmlns:xlink="http://www.w3.org/1999/xlink" xmlns:inkscape="http://www.inkscape.org/namespaces/inkscape" version="1.1" width="2947" height="2947" viewBox="0 0 2947 2947">
<defs>
<clipPath id="clip_0">
<path transform="matrix(1,0,0,-1,0,2947)" d="M0 2947H2947V0H0Z"/>
</clipPath>
<clipPath id="clip_1">
<path transform="matrix(1,0,0,-1,0,2947)" d="M447 423.998H2547V2524H447Z"/>
</clipPath>
<clipPath id="clip_2">
<path transform="matrix(1,0,0,-1,0,2947)" d="M0 2947H2947V0H0Z"/>
</clipPath>
</defs>
<g>
<g inkscape:groupmode="layer" inkscape:label="Layer 1">
<g clip-path="url(#clip_0)">
<g>
<g clip-path="url(#clip_1)">
</g>
</g>
</g>
<path transform="matrix(1,0,0,-1,0,2947)" d="M0 0H2947V2947H0Z" fill="#18a6a3"/>
<path transform="matrix(1,0,0,-1,1371.6001,1677)" d="M0 0-.1 .3 957.3 355.8 1-264 .1-262.6H-2.8V-1ZM0 712-2.8 713V971.8L.1 974.4 1.1 976 957.3 356.2-.1 711.7Z" fill="#000c11"/>
<path transform="matrix(1,0,0,-1,2328.9005,1321.2002)" d="M0 0-516.4-1030.1-519.301-1027.3-957.201-621.1-957.4-620.6-956.301-619.8ZM-516.4 1030.5 0 .4-956.2 620.2-957.4 621-957.2 621.5-519.5 1027.6Z" fill="#045050"/>
<path transform="matrix(1,0,0,-1,1371.7002,1939.5996)" d="M0 0 .9-1.4-.2-2.2 0-2.7 437.899-408.9H-530.8L-531.7-409.301-706.6-2.2-700.7 0H-6L-2.9-2.9V0ZM0 1237-2.9 1234.399V1237ZM-.2 1239.399 1 1238.6 0 1237H-700.3L-706.6 1239.399-531.7 1646.399-530.8 1646H437.7L0 1239.899Z" fill="#086d6c"/>
<path transform="matrix(1,0,0,-1,1371.5,965.2998)" d="M0 0 957.4-355.5V-355.9L0-711.4 .1-711.7-2.7-712.7V1.3L.1 .3Z" fill="#045050"/>
<path transform="matrix(1,0,0,-1,1368.7998,1939.5996)" d="M0 0V-2.9L-3.1 0Z" fill="#086d6c"/>
<path transform="matrix(1,0,0,-1,1368.7998,1678)" d="M0 0V-261.6H-3.1L-202.3-75.8Z" fill="#001d20"/>
<path transform="matrix(1,0,0,-1,1368.7998,1677.0996)" d="M0 0V-.9L-202.3-76.7-661.6 355.5V356.699L-202.3 788.899 0 713.1V355.3Z" fill="#086d6c"/>
<path transform="matrix(1,0,0,-1,1368.7998,705.2002)" d="M0 0V-258.8L-202.3-183Z" fill="#001d20"/>
<path transform="matrix(1,0,0,-1,1365.7002,1939.5996)" d="M0 0H-694.7L-199.2 185.8ZM3.1 1237V1234.399L-199.2 1051.399-694.3 1237Z" fill="#003334"/>
<g clip-path="url(#clip_2)">
<path transform="matrix(1,0,0,-1,1784.2002,2662.5997)" d="M0 0-83.9 149.8H7.1L31.7 99.6C35.2 92.3 38.8 84.5 42.6 76.1 46.399 67.699 50.5 58.5 54.899 48.399H56.8C60.3 58.5 63.7 67.8 67.2 76.1 70.7 84.5 74 92.3 77.2 99.6L99 149.8H186.2L102.3-3.801 191.399-158.301H100.399L72-103.301C67.6-95.101 63.5-86.9 59.899-78.7 56.3-70.5 52.399-61.601 48.3-52.2H46.399C42.899-61.7 39.399-70.5 35.7-78.7 32.1-86.9 28.399-95.101 24.6-103.301L-1.9-158.301H-89.101ZM-261.101-29.801-265.8-8.5C-269.3 6.399-272.9 22.5-276.7 39.8-280.5 57.199-284.3 73.6-288.101 89.1H-290C-293.5 73.3-297 56.8-300.7 39.6-304.3 22.4-307.9 6.3-311.4-8.5L-316.1-29.801H-261.1ZM-246.4-92.9H-330.8L-346-158.301H-429.4L-336.5 149.8H-237.9L-145-158.301H-231.3ZM-740.3 149.8H-660.2L-634.1 49.3-625.6 9.5H-624.2L-615.7 49.3-591.1 149.8H-511V-158.301H-576.4V-85.801C-576.4-76.601-576-65-575.2-51-574.4-36.9-573.5-22.4-572.601-7.4-571.7 7.6-570.5 22.1-569.3 36-568 49.899-566.9 61.399-566 70.6H-567.4L-593-20.9-609.1-76.4H-644.2L-660.3-20.9-684.5 70.6H-686.4C-685.5 61.399-684.3 49.899-683.1 36-681.8 22.1-680.7 7.6-679.8-7.4-678.9-22.4-678-37-677.2-51-676.4-65.101-676-76.7-676-85.801V-158.301H-740.5Z" fill="#ffffff"/>
</g>
</g>
</g>
</svg>
