<?xml version="1.0" encoding="utf-8"?>
<!-- Generator: Adobe Illustrator 23.0.0, SVG Export Plug-In . SVG Version: 6.00 Build 0)  -->
<svg version="1.1" id="Слой_1" xmlns="http://www.w3.org/2000/svg" xmlns:xlink="http://www.w3.org/1999/xlink" x="0px" y="0px"
	 viewBox="0 0 450 450" style="enable-background:new 0 0 450 450;" xml:space="preserve">
<style type="text/css">
	.st0{clip-path:url(#SVGID_2_);}
	.st1{fill-rule:evenodd;clip-rule:evenodd;fill:#231F20;}
</style>
<g>
	<defs>
		<rect id="SVGID_1_" x="0" width="450" height="450"/>
	</defs>
	<clipPath id="SVGID_2_">
		<use xlink:href="#SVGID_1_"  style="overflow:visible;"/>
	</clipPath>
	<g class="st0">
		<path class="st1" d="M75.9,136.9c2.4,117,60.9,187.3,163.5,187.3h5.8v-66.9c37.7,3.7,66.2,31.3,77.6,66.9h53.3
			c-14.6-53.2-53.1-82.7-77.1-93.9c24-13.9,57.8-47.6,65.8-93.4h-48.4c-10.5,37.1-41.6,70.9-71.2,74.1v-74.1h-48.4v129.7
			c-30-7.5-67.9-43.9-69.6-129.7H75.9z M375,450H75c-41.4,0-75-33.6-75-75V75C0,33.6,33.6,0,75,0h300c41.4,0,75,33.6,75,75v300
			C450,416.4,416.4,450,375,450z"/>
	</g>
</g>
</svg>
