<?xml version="1.0" encoding="UTF-8" standalone="no"?>
<!-- Created with Inkscape (http://www.inkscape.org/) -->

<svg
   version="1.1"
   id="svg2"
   width="4000"
   height="4000"
   viewBox="0 0 4000 4000"
   sodipodi:docname="Email_inverted.ai"
   xmlns:inkscape="http://www.inkscape.org/namespaces/inkscape"
   xmlns:sodipodi="http://sodipodi.sourceforge.net/DTD/sodipodi-0.dtd"
   xmlns="http://www.w3.org/2000/svg"
   xmlns:svg="http://www.w3.org/2000/svg">
  <defs
     id="defs6">
    <clipPath
       clipPathUnits="userSpaceOnUse"
       id="clipPath18">
      <path
         d="M 0,3000 H 3000 V 0 H 0 Z"
         id="path16" />
    </clipPath>
  </defs>
  <sodipodi:namedview
     id="namedview4"
     pagecolor="#ffffff"
     bordercolor="#000000"
     borderopacity="0.25"
     inkscape:showpageshadow="2"
     inkscape:pageopacity="0.0"
     inkscape:pagecheckerboard="0"
     inkscape:deskcolor="#d1d1d1" />
  <g
     id="g8"
     inkscape:groupmode="layer"
     inkscape:label="Email_inverted"
     transform="matrix(1.3333333,0,0,-1.3333333,0,4000)">
    <path
       d="M 0,0 H 3000 V 3000 H 0 Z"
       style="fill:'currentColor';fill-opacity:1;fill-rule:nonzero;stroke:none"
       id="path10" />
    <g
       id="g12">
      <g
         id="g14"
         clip-path="url(#clipPath18)">
        <g
           id="g20"
           transform="translate(1500,1075.2188)">
          <path
             d="m 0,0 c -234.225,0 -424.781,190.556 -424.781,424.782 0,234.225 190.556,424.78 424.781,424.78 234.225,0 424.781,-190.555 424.781,-424.78 C 424.781,190.556 234.225,0 0,0 m 993.592,834.333 c -52.897,127.858 -129.054,243.046 -226.359,342.361 -97.318,99.329 -210.921,177.815 -337.658,233.277 -131.299,57.46 -270.956,87.558 -415.095,89.461 -146.787,1.907 -289.476,-25.22 -424.015,-80.71 -129.785,-53.529 -246.395,-130.968 -346.59,-230.165 -100.225,-99.227 -178.852,-215.099 -233.697,-344.396 -56.814,-133.938 -85.384,-276.212 -84.918,-422.87 0.467,-146.274 29.664,-287.926 86.782,-421.019 55.151,-128.51 133.851,-243.571 233.909,-341.983 100.111,-98.466 216.539,-175.286 346.052,-228.331 129.552,-53.059 266.636,-79.926 407.734,-79.922 4.966,0 9.956,0.032 14.931,0.101 150.061,2.01 294.933,34.38 430.595,96.21 41.185,18.769 59.355,67.373 40.585,108.558 -18.772,41.189 -67.374,59.359 -108.56,40.587 -114.866,-52.353 -237.607,-79.762 -364.816,-81.467 -245.609,-3.233 -477.041,89.442 -651.587,261.118 -174.44,171.57 -270.938,401.229 -271.721,646.669 -0.783,246.161 95.115,477.096 270.027,650.267 174.885,173.142 406.751,266.705 653.129,263.462 498.747,-6.579 901.813,-417.917 898.5,-916.945 C 910.05,302.584 887.781,189.729 844.633,83.161 824.178,32.641 775.828,-0.004 721.461,-0.004 648.249,-0.002 588.687,59.562 588.687,132.772 v 798.743 c 0,45.262 -36.692,81.952 -81.953,81.952 -45.261,0 -81.953,-36.69 -81.953,-81.952 v -99.197 c -2.812,2.928 -5.637,5.848 -8.517,8.727 C 305.076,952.233 157.244,1013.467 0,1013.467 c -157.243,0 -305.076,-61.234 -416.264,-172.422 -111.188,-111.188 -172.422,-259.019 -172.422,-416.263 0,-157.244 61.234,-305.077 172.422,-416.264 111.188,-111.189 259.021,-172.423 416.264,-172.423 157.244,0 305.076,61.234 416.264,172.423 8.66,8.66 16.98,17.567 25.029,26.66 40.451,-115.784 150.755,-199.082 280.166,-199.087 59.35,0 116.728,17.557 165.933,50.772 49.147,33.177 86.895,79.785 109.165,134.785 50.957,125.855 77.256,259.041 78.164,395.86 0.957,144.144 -26.338,284.384 -81.129,416.825"
             style="fill:#ffffff;fill-opacity:1;fill-rule:nonzero;stroke:none"
             id="path22" />
        </g>
      </g>
    </g>
  </g>
</svg>
