<?xml version="1.0" encoding="UTF-8" standalone="no"?>
<!-- Created with Inkscape (http://www.inkscape.org/) -->

<svg
   version="1.1"
   id="svg2"
   width="600"
   height="600"
   viewBox="0 0 600 600"
   sodipodi:docname="Email_square_black.ai"
   xmlns:inkscape="http://www.inkscape.org/namespaces/inkscape"
   xmlns:sodipodi="http://sodipodi.sourceforge.net/DTD/sodipodi-0.dtd"
   xmlns="http://www.w3.org/2000/svg"
   xmlns:svg="http://www.w3.org/2000/svg">
  <defs
     id="defs6">
    <clipPath
       clipPathUnits="userSpaceOnUse"
       id="clipPath16">
      <path
         d="M 0,450 H 450 V 0 H 0 Z"
         id="path14" />
    </clipPath>
  </defs>
  <sodipodi:namedview
     id="namedview4"
     pagecolor="#ffffff"
     bordercolor="#000000"
     borderopacity="0.25"
     inkscape:showpageshadow="2"
     inkscape:pageopacity="0.0"
     inkscape:pagecheckerboard="0"
     inkscape:deskcolor="#d1d1d1" />
  <g
     id="g8"
     inkscape:groupmode="layer"
     inkscape:label="Email_square_black"
     transform="matrix(1.3333333,0,0,-1.3333333,0,600)">
    <g
       id="g10">
      <g
         id="g12"
         clip-path="url(#clipPath16)">
        <g
           id="g18"
           transform="translate(378.2109,-1e-4)">
          <path
             d="m 0,0 h -306.422 c -39.484,0 -71.789,32.305 -71.789,71.789 v 306.422 c 0,39.484 32.305,71.789 71.789,71.789 H 0 c 39.484,0 71.789,-32.305 71.789,-71.789 V 71.789 C 71.789,32.305 39.484,0 0,0"
             style="fill:#231f20;fill-opacity:1;fill-rule:evenodd;stroke:none"
             id="path20" />
        </g>
        <g
           id="g22"
           transform="translate(225,160.5595)">
          <path
             d="m 0,0 c -35.533,0 -64.441,28.907 -64.441,64.44 0,35.534 28.908,64.441 64.441,64.441 35.533,0 64.44,-28.907 64.44,-64.441 C 64.44,28.907 35.533,0 0,0 m 150.731,126.571 c -8.024,19.396 -19.578,36.871 -34.339,51.937 -14.763,15.069 -31.997,26.975 -51.224,35.389 -19.918,8.717 -41.105,13.283 -62.971,13.572 -22.268,0.289 -43.915,-3.826 -64.325,-12.244 -19.689,-8.121 -37.379,-19.869 -52.579,-34.917 -15.204,-15.053 -27.132,-32.631 -35.452,-52.246 -8.619,-20.319 -12.953,-41.903 -12.883,-64.151 0.071,-22.19 4.5,-43.68 13.166,-63.87 8.366,-19.495 20.305,-36.95 35.484,-51.88 15.187,-14.937 32.85,-26.592 52.497,-34.639 19.654,-8.048 40.45,-12.125 61.855,-12.124 0.753,0 1.511,0.005 2.266,0.015 22.764,0.306 44.742,5.216 65.322,14.596 6.248,2.847 9.005,10.22 6.157,16.469 -2.848,6.248 -10.221,9.004 -16.47,6.157 -17.424,-7.943 -36.045,-12.101 -55.343,-12.36 -37.26,-0.49 -72.369,13.57 -98.848,39.613 -26.463,26.028 -41.102,60.868 -41.221,98.102 -0.119,37.344 14.429,72.377 40.964,98.648 26.531,26.266 61.706,40.46 99.082,39.968 75.661,-0.998 136.808,-63.399 136.306,-139.104 -0.117,-17.6 -3.495,-34.72 -10.041,-50.887 -3.104,-7.664 -10.438,-12.616 -18.686,-12.616 -11.106,0 -20.142,9.036 -20.142,20.143 v 121.172 c 0,6.866 -5.567,12.432 -12.433,12.432 -6.866,0 -12.433,-5.566 -12.433,-12.432 v -15.049 c -0.426,0.444 -0.854,0.887 -1.292,1.324 C 46.281,144.457 23.854,153.746 0,153.746 c -23.854,0 -46.281,-9.289 -63.148,-26.157 -16.868,-16.867 -26.158,-39.294 -26.158,-63.149 0,-23.854 9.29,-46.281 26.158,-63.148 16.867,-16.868 39.294,-26.157 63.148,-26.157 23.854,0 46.281,9.289 63.148,26.157 1.315,1.313 2.577,2.665 3.797,4.044 6.137,-17.565 22.87,-30.201 42.503,-30.202 9.003,0 17.708,2.664 25.172,7.703 7.456,5.032 13.183,12.103 16.561,20.447 7.73,19.092 11.72,39.297 11.858,60.053 0.146,21.867 -3.996,43.142 -12.308,63.234"
             style="fill:#ffffff;fill-opacity:1;fill-rule:nonzero;stroke:none"
             id="path24" />
        </g>
      </g>
    </g>
  </g>
</svg>
